<svg xmlns="http://www.w3.org/2000/svg" xmlns:xlink="http://www.w3.org/1999/xlink" fill="#00FF7F" width="50px" height="50px" viewBox="0 0 512 512" version="1.1" xml:space="preserve">
  <g id="B_-_182_x2C__Money_x2C__Bank_x2C__business_x2C__coins_x2C__gold">
    <g>
      <path d="M300.842,196.598c-0.342-3.052-1.724-6.018-4.084-8.382    c-2.795-2.795-6.492-4.213-10.188-4.213c-3.657,0-7.354,1.418-10.149,4.213c-2.835,2.794-4.209,6.492-4.209,10.188    c0,3.698,1.374,7.395,4.209,10.19c2.322,2.322,5.334,3.697,8.34,4.084l9.63-9.63l-1.329-0.774    c-0.814,1.075-1.762,1.806-2.967,2.106c-1.117,0.301-2.406,0.172-3.873-0.387l1.203-2.795c0.651,0.172,1.211,0.258,1.763,0.172    c0.56-0.043,1.033-0.257,1.421-0.515l-4.209-2.408c-1.164,1.074-2.322,1.72-3.4,1.892c-1.158,0.172-2.277-0.086-3.309-0.688    c-1.119-0.645-1.895-1.548-2.236-2.665c-0.343-1.118-0.217-2.323,0.342-3.526l-1.025-0.603l0.854-1.461l1.033,0.603    c0.73-1.032,1.592-1.677,2.578-1.978c0.947-0.258,1.98-0.214,3.138,0.172l-1.157,2.795c-0.901-0.301-1.678-0.215-2.322,0.3    l3.953,2.279c1.375-1.375,2.578-2.149,3.611-2.365c1.032-0.172,2.111,0.044,3.183,0.688c1.251,0.688,2.065,1.676,2.493,2.88    c0.388,1.247,0.342,2.58-0.256,3.998l1.801,1.032L300.842,196.598z M250.538,197.115l32.25-55.803    c0.901-1.635,3.006-2.194,4.637-1.248c1.895,1.118,4.131,1.333,6.196,0.774c1.974-0.559,3.821-1.85,4.985-3.784    c0.902-1.633,3.006-2.193,4.644-1.247l27.856,16.122c1.637,0.946,2.195,3.01,1.288,4.644c-1.026,1.762-1.288,3.783-0.94,5.674    c0.257,1.375,0.855,2.666,1.803,3.74c0.775,0.086,1.46,0.387,2.064,0.989l5.678,5.632l9.715-16.81l-60.619-34.995l-41.785,72.397    C249.038,194.492,249.768,195.825,250.538,197.115z M271.389,183.185c4.17-4.169,9.675-6.276,15.181-6.276    c5.499,0.043,11.003,2.106,15.174,6.276c2.276,2.236,3.913,4.858,4.946,7.609l20.936-20.979c-1.42-1.849-2.407-3.998-2.841-6.234    c-0.468-2.365-0.382-4.857,0.349-7.265l-22.699-13.112c-1.934,2.063-4.433,3.482-7.097,4.212    c-2.624,0.688-5.499,0.688-8.208-0.129l-32.592,56.448c5.118,8.211,10.452,15.993,15.648,23.517l8.774-8.771    c-2.796-1.031-5.374-2.666-7.57-4.858c-4.171-4.212-6.314-9.716-6.314-15.22C265.074,192.901,267.218,187.398,271.389,183.185z     M363.867,369.898c2.795,0.774,5.848,1.418,9.07,1.935c5.289,0.86,11.221,1.332,17.456,1.332c8.209,0,15.864-0.816,22.442-2.278    c6.664-1.418,12.076-3.483,15.773-5.89c0.348-0.216,0.645-0.387,1.033-0.473c2.15-1.59,3.354-3.267,3.354-4.945    c0-0.772-0.342-1.59-0.861-2.364c-0.468-0.645-1.072-1.289-1.803-1.935l-0.17,0.13h-0.047l-0.211,0.086l-0.178,0.13l0,0    c-1.631,0.902-3.479,1.719-5.498,2.449c-1.98,0.731-4.131,1.42-6.452,2.021l-0.171,0.044l-0.086,0.042l-0.861,0.216l0,0    l-0.258,0.086c-7.563,1.805-16.509,2.881-26.007,2.881c-5.288,0-10.452-0.344-15.267-0.946c-2.748-0.344-5.412-0.774-7.905-1.29    C367.222,364.223,366.058,367.189,363.867,369.898z M354.665,368.996c0.257-0.302,0.604-0.561,0.947-0.732    c2.92-2.276,4.558-4.729,4.558-7.178c0-0.904-0.256-1.807-0.69-2.709c-0.085-0.172-0.21-0.344-0.341-0.559    c-1.033-1.764-2.836-3.482-5.25-5.073c-2.788-1.849-6.359-3.569-10.569-5.073l-0.178-0.044l-0.039-0.042h-0.047    c-10.662-3.741-25.021-6.063-40.925-6.063c-16.595,0-31.559,2.495-42.306,6.578c-9.715,3.611-15.734,8.255-15.734,12.984    c0,2.793,2.065,5.545,5.716,8.082c0.217,0.086,0.388,0.17,0.559,0.301c2.065,1.376,4.474,2.622,7.223,3.782l0,0l0.349,0.129    l0.085,0.044l0.21,0.086l0.219,0.086l0.084,0.042l0.343,0.13l0,0l0.349,0.128l0.125,0.044l0.217,0.086l0.257,0.086l0.085,0.044    l0.349,0.128l0.04,0.043l0.303,0.086l0.256,0.086l0.086,0.044l1.42,0.472h0.04l0.303,0.129c2.795,0.903,5.808,1.72,9.069,2.408    l0.086,0.044l2.151,0.43l0.171,0.042l0.217,0.043c0.986,0.216,2.02,0.388,3.053,0.56l0.427,0.086l0.217,0.042l0.218,0.044    l0.428,0.042h0.045l1.33,0.217l0,0l1.374,0.214l0,0l1.894,0.216l0.172,0.042h0.256l0.947,0.128l0.217,0.044h0.258l1.848,0.216    h0.047l0.473,0.042h0.257l0.257,0.043l0.427,0.044l0,0l0.521,0.042h0.217l0.295,0.044l0.436,0.042l0,0h0.512l0.258,0.044h0.217    l0.473,0.042l0,0l0.514,0.044h0.264l0.256,0.042h0.473l0,0l0.475,0.044h0.256h0.258l0.512,0.042l0,0h0.52l0.217,0.044h0.257h0.514    l0,0l0.474,0.042h0.256h0.264l0.513,0.044l0,0h0.514h0.263h0.256h0.514l0,0l0.52,0.042h0.256h0.257h0.521l0,0h0.513h0.257h0.256    h0.52h0.514h0.262h0.258h0.513l0,0h0.52h0.257h0.257l0.513-0.042l0,0h0.52h0.256h0.258h0.473h0.046l0.513-0.044h0.217h0.258    l0.473-0.042h0.047h0.513h0.217l0.257-0.044h0.513l0,0l0.521-0.042h0.21h0.302l0.436-0.044h0.039h0.474l0.257-0.042h0.256    l0.475-0.044h0.045l0.473-0.042h0.211l0.303-0.044h0.434l0.041-0.042l0.519-0.044l1.46-0.086l0.172-0.043l0.256-0.042h0.428h0.092    l0.467-0.044l0.217-0.044l0.258-0.042c1.553-0.13,3.098-0.344,4.644-0.516l0.046-0.042l2.711-0.389l0.466-0.086h0.132l0.303-0.042    c1.203-0.216,2.361-0.43,3.525-0.646l0.125-0.043l0.264-0.042l0.854-0.172h0.133l0.303-0.088l0.342-0.086h0.086l0.427-0.084    l0.093-0.044l0.341-0.044c2.065-0.473,4.124-1.03,6.019-1.591l0.172-0.042l0.217-0.044c5.973-1.763,10.957-3.955,14.568-6.404    c0.178-0.13,0.35-0.216,0.52-0.302L354.665,368.996z M366.531,387.653l0.387,0.129h0.04l0.606,0.13l0,0l0.17,0.044l0,0    l0.217,0.042l0,0l0.218,0.042l0,0l0.171,0.044l0,0l0.211,0.042l0,0l0.388,0.086h0.046l0.388,0.086l0,0l0.21,0.044l0,0l0.816,0.128    h0.047l0.217,0.044l0,0l0.17,0.042h0.04l0.171,0.044h0.046l0.171,0.043l0,0l0.217,0.043h0.039l0.389,0.087l0,0h0.218l0,0    l0.217,0.042h0.04l0.388,0.086h0.039l0.178,0.044l0,0l0.427,0.086l0,0h0.258l0,0l0.217,0.042l0,0l0.217,0.042l0,0h0.256l0,0    l0.429,0.088l0,0l0.217,0.042l0,0h0.21l0,0l0.217,0.044h0.047l0.171,0.042l0,0h0.256l0,0l0.171,0.042l0,0l0.258,0.044l0,0h0.217    l0,0l0.217,0.044l0,0l0.211,0.042l0,0h0.217l0,0l0.217,0.043l0,0h0.21l0,0l0.264,0.043l0,0h0.21l0.217,0.044l0,0h0.217l0,0    l0.211,0.043l0,0l0.264,0.042l0,0h0.172l0,0l0.256,0.044h0.256l0,0l0.217,0.042l0,0h0.219l0.21,0.044h0.046h0.171h0.039h0.218    l0.217,0.044h0.039h0.178l0,0h0.257l0,0l0.256,0.042h0.218l0,0l0.21,0.042l0,0h0.263l0,0h0.211l0.217,0.044h0.256l0,0h0.258    l0.217,0.042h0.217l0,0h0.256l0,0l0.257,0.044l0,0h0.218h0.256h0.217l0.258,0.042h0.256l0,0h0.217h0.217h0.257l0.257,0.044h0.256    h0.217h0.258h0.217h0.256l0.257,0.042h0.257h0.217h0.217h0.256h0.258h0.256h0.264h0.256h0.217h0.257h0.388h0.172h0.171h0.427l0,0    h0.35h0.21h0.217h0.343l0,0l0.388-0.042h0.217h0.171h0.389l0,0h0.381h0.178l0.172-0.044h0.388h0.039h0.343h0.178l0.17-0.042h0.389    l0,0l0.381-0.044h0.172h0.178h0.381l0,0l0.35-0.042h0.21h0.178l0.343-0.044l0,0l0.387-0.042h0.211h0.178l0.684-0.042l0.171-0.044    h0.171l0.389-0.044l0,0h0.388l0.171-0.042h0.172l0.689-0.086h0.172l0.17-0.043l0.343-0.044h0.046h0.303l0.211-0.043h0.131    l0.389-0.043h0.039l0.263-0.042l0.73-0.088h0.04l0.303-0.042l0.986-0.128l0.217-0.044l0.171-0.044l0.303-0.042h0.046l0.986-0.128    l0,0l0.986-0.172l0,0c1.422-0.217,2.796-0.517,4.131-0.774c6.617-1.463,12.076-3.525,15.733-5.934    c0.217-0.129,0.388-0.259,0.599-0.343c2.453-1.678,3.828-3.44,3.828-5.245c0-0.774-0.342-1.591-0.861-2.365    c-0.428-0.644-0.986-1.246-1.717-1.807c-1.809,1.033-3.867,1.979-6.189,2.838c-8.689,3.269-20.726,5.289-33.835,5.289    c-5.505,0-10.879-0.344-15.864-1.032c-3.014-0.388-5.934-0.902-8.682-1.505c0.939,1.805,1.374,3.739,1.374,5.718    C367.222,384.989,367.005,386.363,366.531,387.653z M358.236,388.298l0.04-0.042l0,0v-0.086h0.046l0.039-0.086l0,0l0.047-0.044    v-0.042l0.039-0.042l0,0v-0.088h0.046l0.039-0.042l0,0l0.087-0.086l0,0v-0.043v-0.044l0.091-0.044l0,0l0.04-0.084l0,0l0.046-0.044    l0,0l0.085-0.044l0,0v-0.042c0.855-1.204,1.289-2.492,1.289-3.783c0-1.246-0.52-2.536-1.374-3.783    c-0.73-1.074-1.81-2.15-3.052-3.181c-2.026,1.16-4.263,2.234-6.756,3.267l0,0l-1.288,0.517l0,0    c-4.124,1.591-8.683,2.967-13.714,4.083c-3.007,0.646-6.145,1.204-9.412,1.677l-0.258,0.044l-0.992,0.128l-0.211,0.044h-0.263    l-1.204,0.172l-0.257,0.042l-0.513,0.044l0,0l-0.52,0.042l-0.211,0.043l-0.263,0.044l-0.474,0.044h-0.04l-0.729,0.086    l-0.257,0.042l-0.474,0.044h-0.047l-0.512,0.042h-0.264l-0.211,0.044l-0.473,0.042h-0.086l-0.473,0.042h-0.217l-0.304,0.044    l-0.513,0.044l0,0l-0.474,0.042h-0.257l-0.257,0.044h-0.519h-0.041l-0.518,0.042l-0.258,0.042h-0.256h-0.52v0.044h-0.514    l-0.257,0.044h-0.302h-0.514l0,0l-0.52,0.042h-0.256l-0.257,0.042h-0.52l0,0l-0.513,0.044h-0.303h-0.258l-0.559,0.044l0,0h-0.52    h-0.256h-0.257h-0.56l0,0l-0.559,0.043h-0.256h-0.258h-0.519l0,0h-0.56h-0.256h-0.303h-0.514h-0.559h-0.257h-0.303H300.5l0,0    h-0.52h-0.303h-0.256l-0.514-0.043h-0.046h-0.513h-0.264h-0.256h-0.514h-0.046l-0.513-0.044h-0.303l-0.777-0.044l0,0h-0.512    l-0.258-0.042h-0.256h-0.52l-0.086-0.042h-0.427h-0.349l-0.171-0.044h-0.514l-0.085-0.044h-0.434h-0.342l-0.172-0.042h-0.559    l-0.047-0.042h-0.428l-0.342-0.044h-0.17l-0.521-0.042h-0.085l-0.428-0.044l-0.342-0.044h-0.178l-0.514-0.042h-0.085l-0.435-0.042    l-0.342-0.044h-0.171l-0.474-0.042h-0.086l-0.428-0.044l-0.348-0.042l-1.158-0.13l-0.342-0.044h-0.132l-0.513-0.085h-0.086    l-0.388-0.044l-0.349-0.042c-4.295-0.516-8.341-1.204-12.208-2.064h-0.171c-4.9-1.116-9.373-2.406-13.412-3.955l-0.085-0.042    l-0.218-0.086l-0.341-0.13l0,0l-0.559-0.258h-0.086l-0.473-0.215l-0.171-0.042l-0.303-0.13l-0.085-0.086    c-2.197-0.902-4.216-1.893-6.019-2.923c-1.289,1.03-2.322,2.106-3.052,3.181c-0.907,1.247-1.335,2.537-1.335,3.783    c0,2.837,2.105,5.59,5.848,8.125c0.171,0.13,0.342,0.216,0.559,0.302c5.032,3.354,12.425,6.147,21.41,8.082    c2.189,0.517,4.512,0.946,6.834,1.289h0.085l1.29,0.216h0.045c1.803,0.258,3.65,0.517,5.545,0.688l0,0l0.514,0.042l0.178,0.044    h0.256l0.428,0.086h0.086l0.434,0.042h0.257l0.257,0.044l0.427,0.042h0.046l0.475,0.044h0.217l0.295,0.042l0.436,0.044h0.039    h0.473l0.52,0.042l0.428,0.044h0.04l0.474,0.042h0.264h0.256l0.473,0.042h0.041l0.473,0.044h0.217h0.258l0.512,0.044l0,0h0.52    l0.217,0.043h0.297h0.474l0,0l0.474,0.043h0.256h0.264l0.513,0.043l0,0h0.514h0.263h0.256h0.514l0,0h0.52h0.256l0.257,0.044h0.521    l0,0h0.513h0.257h0.256h0.52h0.514h0.262h0.258h0.513l0,0h0.52l0.257-0.044h0.257h0.513l0,0h0.474h0.302h0.217h0.514l0,0    l0.475-0.043h0.301h0.218l0.513-0.043l0,0h0.514h0.263l0.257-0.043h0.513l0,0l0.474-0.044h0.257h0.217l0.521-0.044l0,0    l0.513-0.042h0.257h0.171l0.519-0.042h0.041l0.473-0.044l0.474-0.042h0.474h0.045l0.469-0.044l0.262-0.042h0.211l0.475-0.044    h0.045l0.475-0.042l0.256-0.044h0.171l0.513-0.042l0,0l0.475-0.086c2.195-0.216,4.387-0.473,6.491-0.774h0.085    c2.842-0.43,5.551-0.946,8.17-1.505c8.984-1.935,16.424-4.729,21.409-8.082c0.171-0.086,0.388-0.214,0.604-0.302    C355.955,390.663,357.244,389.502,358.236,388.298z M349.166,402.356l-0.092,0.044l-0.256,0.128h-0.086l-0.56,0.216l-0.039,0.042    l-0.263,0.128h-0.04l-0.302,0.131l0,0l-0.646,0.216h-0.04l-0.348,0.128l-0.171,0.086l-0.171,0.042l-0.342,0.13l0,0l-0.35,0.128    l-0.256,0.088l-0.086,0.042l-0.342,0.086l-0.086,0.043l-0.604,0.216l0,0l-1.073,0.344l-0.045,0.042l-1.203,0.345l-0.172,0.086    c-2.492,0.731-5.071,1.376-7.82,1.979c-3.184,0.688-6.537,1.332-10.064,1.805l-0.513,0.044l-0.085,0.042l-0.389,0.044    l-1.848,0.214h-0.086l-0.52,0.086h-0.125l-0.736,0.086h-0.125l-0.475,0.042l-0.17,0.044l-0.349,0.044h-0.429l-0.084,0.042    l-0.514,0.042h-0.178l-0.342,0.044l-0.342,0.044h-0.132l-0.513,0.042h-0.131l-0.389,0.043h-0.428l-0.04,0.044l-0.519,0.042h-0.172    h-0.342l-0.434,0.044h-0.086l-0.514,0.044h-0.217l-0.302,0.042l-1.033,0.042l-0.211,0.044h-0.302l-0.514,0.042h-0.045h-0.514    h-0.217l-0.343,0.044h-0.434h-0.086l-0.513,0.042h-0.217h-0.303h-0.514l0,0l-0.52,0.044h-0.256h-0.296h-0.521h-0.039h-0.52h-0.256    l-0.258,0.042h-0.519h-0.04h-0.559h-0.217h-0.303h-0.514h-0.559h-0.257h-0.303H300.5l0,0h-0.52l-0.303-0.042h-0.256h-0.514h-0.046    h-0.513h-0.264h-0.256l-0.514-0.044h-0.046h-0.513h-0.303h-0.218l-0.56-0.042l0,0h-0.512l-0.258-0.044h-0.256h-0.52h-0.086    l-0.427-0.042h-0.349l-0.171-0.044l-1.032-0.042l-0.342-0.042h-0.172l-0.514-0.044h-0.092l-0.428-0.044h-0.342h-0.17l-0.521-0.042    l-0.085-0.044h-0.428l-0.342-0.043h-0.178l-0.514-0.042h-0.085l-0.435-0.044l-0.342-0.044h-0.125l-0.52-0.042l-0.086-0.042h-0.387    l-0.389-0.044l-0.125-0.044l-0.52-0.042h-0.086l-0.77-0.086h-0.086l-0.52-0.086h-0.17l-1.81-0.214l-0.343-0.044l-0.124-0.042    l-0.474-0.044c-3.525-0.517-6.926-1.117-10.149-1.805c-2.71-0.603-5.288-1.247-7.734-1.979l-0.218-0.086l-1.164-0.345    l-0.086-0.042l-1.413-0.472l-0.218-0.088l-0.17-0.043l-0.691-0.216l-0.256-0.128h-0.086l-0.343-0.13l-0.171-0.042l-0.178-0.086    l-0.295-0.128h-0.047l-0.303-0.13l-0.295-0.086l0,0l0,0l-1.677-0.688l-0.303-0.086c-2.19-0.944-4.216-1.977-6.064-3.009    c-1.328,1.074-2.446,2.192-3.222,3.267c-0.901,1.29-1.375,2.623-1.375,3.869c0,2.839,2.105,5.59,5.848,8.169    c0.256,0.086,0.514,0.258,0.776,0.43c4.986,3.225,12.293,5.976,21.193,7.91c2.624,0.603,5.373,1.074,8.209,1.505h0.045    l1.329,0.216h0.046l0.474,0.042l2.749,0.344l0.217,0.044h0.303l1.375,0.173l0.428,0.042h0.086l0.434,0.042h0.257l0.257,0.044    l0.427,0.044h0.046l0.475,0.042h0.217l0.295,0.042h0.436h0.039l0.992,0.086l0.428,0.044h0.04l0.474,0.044h0.264h0.256l0.473,0.042    h0.041l0.473,0.042h0.217h0.258l0.512,0.044l0,0h0.52l0.217,0.044h0.297h0.474l0,0l0.474,0.042h0.256h0.264h0.513l0,0l0.514,0.042    h0.263h0.256h0.514l0,0h0.52l0.256,0.044h0.257h0.521l0,0h0.513h0.257h0.256h0.52h0.514h0.262h0.258h0.513l0,0h0.52h0.257    l0.257-0.044h0.513l0,0h0.474h0.302h0.217l0.514-0.042l0,0h0.475h0.301h0.218l0.513-0.042l0,0h0.514h0.263l0.257-0.044h0.513l0,0    l0.474-0.044h0.257h0.217l0.521-0.042l0,0l0.513-0.042h0.257h0.171l0.519-0.044h0.041l0.473-0.044l0.474-0.042l0.474-0.044h0.045    h0.469l0.262-0.042h0.211l0.475-0.042h0.045l0.475-0.044l0.256-0.044h0.171l0.513-0.042l0,0l0.475-0.042    c5.202-0.561,10.188-1.333,14.746-2.323c8.984-1.977,16.424-4.771,21.409-8.038c0.171-0.13,0.349-0.216,0.521-0.302    c3.781-2.537,5.932-5.33,5.932-8.169c0-1.246-0.52-2.579-1.374-3.869c-0.776-1.074-1.894-2.192-3.269-3.267    C353.633,400.38,351.481,401.41,349.166,402.356z M367.137,404.85l0.211,0.087l0,0l0.217,0.043l0,0l0.17,0.044l0,0l0.342,0.042    v0.044h0.178v0.042h0.171l0,0l0.21,0.044l0,0l0.389,0.084l0,0l0.349,0.088l0,0l0.21,0.042l0,0l0.217,0.042l0,0h0.172v0.044h0.171    l0,0l0.171,0.042h0.047l0.17,0.044l0,0l0.217,0.044l0,0l0.343,0.042l0,0l0.217,0.042l0,0l0.21,0.044l0,0l0.172,0.044l0,0    l0.178,0.042l0,0h0.21l0,0l0.218,0.042l0,0l0.17,0.045l0,0l0.219,0.042l0,0h0.21v0.044h0.178l0,0l0.21,0.044l0,0h0.217l0,0    l0.172,0.042l0,0l0.171,0.042h0.046h0.217v0.044h0.171l0,0l0.211,0.042l0,0l0.217,0.044l0,0h0.171l0,0l0.217,0.042h0.039    l0.178,0.044l0,0h0.172l0,0l0.21,0.042h0.046l0.171,0.044l0,0h0.171h0.047h0.211v0.042h0.178l0,0l0.21,0.044h0.046h0.171l0,0    l0.171,0.042l0,0h0.217h0.04l0.171,0.044l0,0h0.178l0.039,0.042h0.217l0,0l0.172,0.044l0,0h0.17h0.047l0.21,0.042l0,0h0.171l0,0    l0.217,0.042l0,0h0.219l0,0l0.17,0.045h0.04h0.217l0,0h0.171v0.043h0.263l0,0h0.171l0,0h0.211l0,0l0.217,0.043l0,0h0.172l0,0    l0.256,0.044l0,0h0.178l0,0h0.21h0.047l0.171,0.042l0,0h0.217l0,0l0.211,0.044l0,0h0.217l0,0h0.217l0,0l0.171,0.042h0.04h0.217    l0,0h0.217l0,0l0.211,0.044l0,0h0.17h0.047h0.217l0,0h0.211l0,0l0.217,0.042l0,0h0.171h0.046h0.211h0.217l0,0l0.217,0.042l0,0    h0.211l0,0h0.217l0,0h0.217h0.217l0.211,0.044l0,0h0.217h0.258h0.17h0.257l0,0h0.178h0.256h0.21h0.218l0.218,0.044h0.217h0.256    h0.172h0.256h0.217h0.211h0.264h0.17h0.257h0.217h0.388h0.172h0.171h0.427l0,0h0.35h0.21h0.217h0.343l0,0l0.388-0.044h0.217h0.171    h0.343h0.046h0.381h0.178h0.172l0.388-0.044h0.039h0.343h0.178h0.17l0.389-0.042l0,0h0.381h0.172l0.178-0.042h0.381l0,0    l0.35-0.044h0.21h0.178l0.343-0.042l0,0h0.341l0.257-0.044h0.178l0.854-0.086h0.171l0.389-0.043l0,0h0.388l0.171-0.043h0.172    l1.031-0.087l0.343-0.042h0.046l0.303-0.044l0.211-0.042h0.131l0.342-0.044h0.086l0.263-0.042l0.73-0.086h0.04l1.289-0.172    l0.217-0.044h0.131l0.343-0.086c2.151-0.301,4.216-0.645,6.104-1.074c2.492-0.559,4.859-1.161,6.965-1.891l0.086-0.044    c0.689-0.217,1.335-0.431,1.934-0.645l0.046-0.044c2.664-0.988,4.94-2.106,6.788-3.31c0.177-0.13,0.348-0.172,0.52-0.258    c2.492-1.721,3.867-3.526,3.867-5.331c0-0.73-0.256-1.505-0.776-2.279l-0.085-0.086c-0.468-0.645-1.072-1.288-1.803-1.935    c-0.605,0.344-1.164,0.646-1.763,0.946l-0.085,0.042l-0.217,0.088l-0.125,0.042l-0.093,0.042l-0.211,0.13l-0.085,0.043    l-0.171,0.044l-0.178,0.128h-0.085l-0.172,0.086l-0.21,0.086l-0.046,0.044l-0.171,0.084l-0.257,0.088l0,0l-0.178,0.086    l-0.256,0.084l0,0l-0.257,0.13l-0.171,0.087h-0.047l-0.211,0.086l-0.17,0.044l-0.092,0.042l-0.257,0.086l-0.086,0.086    l-0.124,0.042l-0.264,0.086l-0.125,0.044l-0.086,0.042l-0.262,0.086h-0.041l-0.217,0.088l-0.171,0.084h-0.085l-0.257,0.087    l-0.086,0.043l-0.171,0.043l-0.263,0.086v0.044l-0.257,0.042l-0.17,0.086h-0.047l-0.296,0.086l-0.085,0.044l-0.172,0.042    l-0.264,0.13l-0.256,0.042c-2.065,0.688-4.342,1.246-6.709,1.763c-2.881,0.646-5.933,1.16-9.109,1.549l-0.086,0.042l-0.303,0.044    h-0.256l-0.862,0.086l-0.303,0.042h-0.085l-0.342,0.044h-0.086l-0.604,0.086h-0.087l-0.387,0.042h-0.125l-0.258,0.044h-0.262    l-0.086,0.042h-0.428l-0.085,0.044h-0.257h-0.35h-0.085l-0.342,0.042h-0.171l-0.257,0.044h-0.303h-0.046l-0.428,0.042h-0.084    l-0.258,0.042h-0.349h-0.085l-0.342,0.044h-0.172h-0.256l-0.35,0.044h-0.039h-0.388h-0.171l-0.217,0.042h-0.389l0,0h-0.428h-0.17    l-0.219,0.043h-0.388l0,0h-0.427h-0.172h-0.256l-0.349,0.044l0,0h-0.427h-0.172h-0.256h-0.35l0,0h-0.427h-0.218h-0.211h-0.388    h-0.257h-0.262h-0.258h-0.256h-0.256h-0.264h-0.256h-0.211h-0.303l-0.256-0.044h-0.218h-0.257h-0.263h-0.257h-0.257l0,0h-0.256    l-0.257-0.043h-0.264h-0.256h-0.256l0,0l-0.258-0.042h-0.262H384.5h-0.256l-0.217-0.044l0,0h-0.256h-0.258l0,0l-0.217-0.044l0,0    h-0.256l0,0h-0.258l0,0l-0.256-0.042l0,0h-0.263l0,0l-0.257-0.042l0,0h-0.257h-0.217l0,0l-0.257-0.044h-0.217h-0.039l-0.217-0.042    l0,0h-0.257h-0.257l-0.257-0.044h-0.217l-0.257-0.042l0,0h-0.217h-0.046l-0.21-0.044l0,0h-0.264l0,0l-0.257-0.042l0,0    l-0.257-0.044l0,0h-0.217l0,0l-0.21-0.042l0,0h-0.264l0,0l-0.256-0.044l0,0l-0.211-0.042h-0.046h-0.217l0,0l-0.211-0.044l0,0    l-0.263-0.042l0,0h-0.257l0,0l-0.21-0.044l0,0h-0.218l0,0l-0.256-0.042l0,0l-0.264-0.044l0,0h-0.21l0,0l-0.217-0.043l0,0    l-0.257-0.043l0,0l-0.257-0.043l0,0h-0.217l0,0l-0.257-0.044l0,0l-0.217-0.042l0,0l-0.256-0.042l0,0h-0.257l0,0l-0.218-0.044l0,0    l-0.217-0.044l0,0l-0.256-0.042l0,0l-0.257-0.044l0,0l-0.257-0.042l0,0l-0.178-0.044h-0.039l-0.217-0.042l0,0l-0.257-0.044l0,0    l-0.218-0.042h-0.039l-0.434-0.042l0,0l-0.428-0.088l0,0l-0.258-0.042l0,0l-0.427-0.086l0,0l-0.52-0.086l0,0l-0.218-0.044l0,0    l-0.21-0.043l0,0l-0.217-0.042l0,0l-0.69-0.13l0,0l-0.428-0.086h-0.039l-0.178-0.086l0,0l-0.256-0.042l0,0l-0.172-0.044h-0.039    l-0.217-0.042l0,0l-0.172-0.044h-0.046l-0.645-0.172l0,0c-0.947-0.172-1.888-0.429-2.796-0.688    c-0.341,0.388-0.729,0.732-1.071,1.076c1.203,1.118,2.236,2.277,3.091,3.481C366.018,400.508,366.873,402.658,367.137,404.85z     M364.598,421.316c3.479,0.946,7.354,1.676,11.392,2.192c4.473,0.558,9.288,0.86,14.404,0.86c12.34,0,23.429-1.849,31.428-4.815    c6.88-2.579,11.175-5.76,11.175-8.943c0-0.773-0.303-1.546-0.861-2.364c-0.468-0.645-1.072-1.288-1.803-1.891l-1.203,0.603    l-0.172,0.086l-0.085,0.042l-0.171,0.086l-0.132,0.086l-0.085,0.044l-0.217,0.086l-0.125,0.042l-0.133,0.086l-0.171,0.086    l-0.085,0.042l-0.171,0.044l-0.178,0.129h-0.085l-0.172,0.086l-0.21,0.088l-0.046,0.042l-0.171,0.086l-0.257,0.086l0,0    l-0.217,0.086l-0.217,0.128l-0.257,0.086l-0.429,0.172l-0.17,0.086h-0.092l-0.257,0.131l-0.086,0.042l-0.124,0.044l-0.264,0.086    l-0.125,0.042l-0.131,0.042l-0.475,0.174l-0.171,0.084h-0.085l-0.257,0.088l-0.086,0.042l-0.171,0.086l-0.263,0.086l0,0    l-0.257,0.043l-0.17,0.086h-0.087l-0.256,0.13h-0.085l-0.172,0.086l-0.264,0.086l0,0l-0.256,0.042l-0.217,0.086h-0.04    l-0.257,0.088l-0.178,0.042l-0.084,0.042l-1.633,0.475l-0.084,0.042c-1.375,0.344-2.797,0.688-4.217,1.032l-0.684,0.128l0,0    l-2.066,0.388v0.042l-0.512,0.087h-0.133c-1.506,0.302-3.051,0.516-4.643,0.731h-0.041l-0.348,0.042l-0.684,0.086l-0.086,0.044    h-0.348l-0.211,0.043h-0.132l-0.73,0.128h-0.303h-0.085l-0.342,0.044l-0.086,0.044h-0.349l-0.256,0.042h-0.087l-0.387,0.042    h-0.125l-0.258,0.044h-0.262h-0.086l-0.428,0.042h-0.085l-0.257,0.044h-0.35l-0.085,0.042h-0.342l-0.171,0.044h-0.257    l-0.303,0.042h-0.046h-0.428l-0.084,0.044h-0.258h-0.349h-0.085l-0.342,0.044h-0.172l-0.256,0.042h-0.35h-0.039h-0.388    l-0.171,0.042h-0.256h-0.35h-0.039h-0.389h-0.17l-0.219,0.044h-0.388l0,0h-0.427h-0.172h-0.256h-0.349l0,0l-0.427,0.042h-0.172    h-0.256h-0.35l0,0h-0.427h-0.218h-0.211h-0.388h-0.217h-0.257h-0.256h-0.218h-0.217h-0.256h-0.257H388.5h-0.218h-0.256    l-0.21-0.042l0,0h-0.218h-0.257h-0.217l0,0h-0.217h-0.039h-0.217l0,0h-0.258l-0.217-0.044l0,0h-0.211h-0.262l0,0h-0.211l0,0    h-0.217l0,0h-0.258l-0.217-0.042l0,0h-0.217l0,0h-0.257l0,0h-0.171h-0.046l-0.21-0.042l0,0h-0.257l0,0h-0.178l0,0l-0.256-0.044    l0,0h-0.257l0,0h-0.217l0,0h-0.211l0,0l-0.217-0.044l0,0h-0.217l0,0l-0.258-0.042l0,0h-0.217l0,0h-0.211l0,0l-0.217-0.044h-0.045    h-0.172l0,0l-0.256-0.042l0,0h-0.218l0,0h-0.21l0,0l-0.257-0.044l0,0h-0.177l0,0l-0.257-0.042l0,0h-0.217l0,0l-0.21-0.044l0,0    h-0.219l0,0h-0.217l0,0l-0.256-0.042l0,0h-0.172l0,0l-0.256-0.042l0,0h-0.171h-0.047l-0.217-0.044l0,0l-0.171-0.044h-0.039h-0.217    l0,0l-0.217-0.042l0,0h-0.211l0,0l-0.217-0.043l0,0h-0.217l0,0l-0.211-0.043l0,0l-0.218-0.043l0,0h-0.217l0,0l-0.21-0.044l0,0    h-0.264l0,0l-0.17-0.044l0,0l-0.257-0.042l0,0h-0.218l0,0l-0.211-0.042l0,0l-0.217-0.044l0,0h-0.217v-0.044h-0.211h-0.045    l-0.172-0.042l0,0l-0.217-0.042h-0.04h-0.17v-0.044h-0.264l0,0l-0.171-0.042l0,0l-0.256-0.044l0,0h-0.172l0,0l-0.256-0.044l0,0    l-0.172-0.042l0,0l-0.264-0.042l0,0h-0.17v-0.044h-0.257l0,0l-0.171-0.042l0,0l-0.217-0.044h-0.039l-0.178-0.042l0,0l-0.211-0.044    l0,0l-0.217-0.042l0,0l-0.217-0.044l0,0h-0.211l0,0l-0.217-0.043l0,0l-0.217-0.044l0,0l-0.383-0.086l0,0l-0.217-0.042l0,0    l-0.171-0.044l0,0l-0.217-0.042h-0.039l-0.178-0.042l0,0l-0.427-0.044v-0.044h-0.172v-0.042l-0.217-0.044l0,0l-0.389-0.086l0,0    l-0.21-0.042l0,0l-0.56-0.128c-1.033,2.104-2.578,4.083-4.558,5.932c1.203,1.074,2.236,2.278,3.091,3.482L364.598,421.316z     M359.31,426.26v-0.042v-0.044l-0.04-0.042v-0.042l-0.047-0.045v-0.043l0,0l-0.427-0.688c-0.823-1.074-1.894-2.191-3.269-3.268    c-0.862,0.517-1.81,0.99-2.75,1.463l0,0l-0.303,0.128l-0.086,0.088l-0.217,0.084l-0.171,0.088l-0.085,0.042l-0.342,0.128l0,0    l-0.264,0.173l-0.125,0.044l-0.171,0.086l-0.217,0.086l-0.085,0.042l-0.343,0.13l0,0l-0.303,0.128l-0.132,0.086l-0.171,0.042    l-0.257,0.13l-0.084,0.044l-0.304,0.086l-0.046,0.043l-0.256,0.128l-0.172,0.044l-0.17,0.086l-0.257,0.086l-0.086,0.042    l-0.263,0.13h-0.086l-0.256,0.13l-0.172,0.042l-0.171,0.086l-0.303,0.086l-0.04,0.045l-0.348,0.128l-0.171,0.042l-0.171,0.044    l-0.342,0.128l0,0l-0.35,0.13l-0.256,0.086l-0.086,0.042l-0.342,0.128l-0.086,0.044l-0.256,0.044l-0.691,0.259l-0.217,0.042    l-0.125,0.086l-0.389,0.086l-0.045,0.044l-0.297,0.084l-0.736,0.216l-0.17,0.044l-0.6,0.171l0,0l-0.348,0.13l-0.258,0.042    l-0.124,0.044c-1.593,0.472-3.229,0.902-4.9,1.288l-0.132,0.044l-1.631,0.344c-3.145,0.688-6.453,1.289-9.979,1.763l-0.125,0.044    l-0.474,0.042h-0.085l-0.389,0.087l-1.848,0.214h-0.131l-0.475,0.086h-0.125l-0.736,0.086h-0.125l-0.475,0.044l-0.17,0.042    l-0.349,0.044l-0.429,0.044h-0.084l-0.514,0.042h-0.178l-0.342,0.042l-0.342,0.044h-0.132l-0.513,0.042h-0.131l-0.389,0.044    l-0.428,0.042h-0.04l-0.519,0.044h-0.172l-0.342,0.042h-0.434h-0.086l-0.514,0.044l-0.217,0.043h-0.302l-0.474,0.043h-0.56    l-0.211,0.043h-0.302l-0.514,0.044h-0.045h-0.514h-0.217l-0.343,0.042h-0.434h-0.086l-0.513,0.044h-0.217h-0.303h-0.514l0,0    l-0.52,0.042h-0.256h-0.296h-0.521h-0.039h-0.52l-0.256,0.042h-0.258h-0.519h-0.04h-0.559h-0.217h-0.303h-0.514h-0.559h-0.257    h-0.303H300.5l0,0h-0.52h-0.303l-0.256-0.042h-0.514h-0.046h-0.513h-0.264h-0.256l-0.514-0.042h-0.046h-0.513h-0.303h-0.218    l-0.56-0.044l0,0h-0.512l-0.258-0.042h-0.256h-0.52h-0.086l-0.427-0.044h-0.349l-0.171-0.043h-0.599l-0.434-0.043h-0.342    l-0.172-0.043l-0.514-0.044h-0.092h-0.428l-0.342-0.042h-0.17l-0.521-0.044h-0.085l-0.428-0.042l-0.342-0.044h-0.178l-0.514-0.042    h-0.085l-0.435-0.044l-0.342-0.042h-0.125l-0.475-0.042h-0.131l-0.387-0.044l-0.389-0.044l-0.125-0.042l-0.52-0.044h-0.086    l-0.388-0.042l-0.382-0.044h-0.086l-0.52-0.086h-0.125l-1.809-0.214l-0.389-0.087h-0.124l-0.474-0.042l-0.172-0.044    c-3.439-0.474-6.794-1.074-9.978-1.763c-3.007-0.646-5.848-1.418-8.511-2.234l-0.342-0.088l-0.264-0.084l-0.428-0.13l-0.171-0.086    l-0.171-0.042l-0.342-0.13h-0.092l-0.296-0.129l-0.218-0.088h-0.131l-0.343-0.128l-0.125-0.042l-0.217-0.086l-0.302-0.13h-0.086    l-0.303-0.128l-0.211-0.044l-0.131-0.042l-0.342-0.128l-0.047-0.045l-0.257-0.13l-0.341-0.084l0,0l-0.349-0.13l-0.21-0.086    l-0.132-0.044l-0.303-0.128l-0.125-0.086l-0.171-0.044l-0.349-0.171h-0.039l-0.303-0.086l-0.256-0.13l-0.045-0.044l-0.303-0.128    l-0.21-0.086l-0.085-0.042l-0.303-0.13l-0.171-0.086l-0.171-0.042l-0.263-0.13l-0.086-0.042l-0.256-0.131l-0.256-0.128l0,0    l-0.303-0.13l-0.217-0.128l-0.086-0.044l-0.256-0.128l-0.171-0.086c-0.947-0.431-1.802-0.902-2.625-1.377    c-1.328,1.076-2.446,2.193-3.222,3.268c-0.901,1.29-1.375,2.58-1.375,3.869c0,2.839,2.065,5.59,5.848,8.168    c0.171,0.088,0.342,0.174,0.559,0.303c5.032,3.311,12.425,6.105,21.41,8.04c2.624,0.559,5.373,1.074,8.209,1.505h0.045    c2.105,0.3,4.256,0.602,6.492,0.815l0.428,0.044h0.086l0.434,0.042h0.257l0.257,0.043l0.427,0.044h0.046l0.475,0.042h0.217h0.295    l0.436,0.044h0.039l0.473,0.042l0.52,0.044l0.428,0.042h0.04l0.474,0.044h0.264h0.256l0.473,0.042h0.041l0.473,0.044h0.217h0.258    l0.512,0.042l0,0h0.52l0.217,0.044h0.297h0.474l0,0l0.474,0.042h0.256h0.264h0.513l0,0l0.514,0.044h0.263h0.256h0.514l0,0h0.52    l0.256,0.042h0.257h0.521l0,0h0.513h0.257h0.256h0.52h0.514h0.262h0.258h0.513l0,0h0.52h0.257l0.257-0.042h0.513l0,0h0.474h0.302    h0.217l0.514-0.044l0,0h0.475h0.301h0.218l0.513-0.042l0,0h0.514h0.263l0.257-0.044h0.513l0,0l0.474-0.042h0.257h0.217    l0.521-0.044l0,0l0.513-0.042h0.257h0.171l0.519-0.044h0.041l0.473-0.042l0.474-0.044l0.474-0.042h0.045l0.469-0.044h0.262h0.211    l0.475-0.042h0.045l0.475-0.044l0.256-0.043h0.171l0.513-0.042l0,0l0.475-0.044c2.195-0.214,4.387-0.516,6.491-0.815h0.085    c2.842-0.431,5.551-0.946,8.17-1.505c8.984-1.935,16.424-4.729,21.409-8.04c0.171-0.129,0.349-0.215,0.521-0.303    c3.781-2.534,5.932-5.329,5.932-8.168C360.17,428.238,359.867,427.206,359.31,426.26z M353.633,445.865l-0.172,0.084l-0.086,0.044    l-0.301,0.173l-0.126,0.042l-0.171,0.086l-0.303,0.13l-0.046,0.042l-0.257,0.086l-0.256,0.172l-0.901,0.431l0,0l-0.178,0.044    l-0.124,0.084l-0.343,0.13l-0.093,0.042l-0.21,0.086l-1.249,0.56l-0.172,0.087l-0.17,0.042l-1.29,0.516l-0.257,0.086l-0.086,0.044    l-0.348,0.128l-0.171,0.045l-0.171,0.042l-0.342,0.128l0,0l-0.35,0.13l-0.256,0.086l-0.086,0.042l-0.342,0.13l-0.086,0.042    l-0.256,0.044l-0.349,0.128l0,0l-0.343,0.13l-0.17,0.044l-0.172,0.085l-0.389,0.086l-0.045,0.044l-0.297,0.086l-0.736,0.214    l-0.17,0.044l-0.6,0.172l0,0l-0.348,0.128l-0.258,0.044l-0.124,0.043c-1.593,0.472-3.229,0.902-4.861,1.29l-0.171,0.042    l-1.631,0.344c-2.67,0.603-5.551,1.118-8.518,1.549l-0.172,0.042l-0.428,0.088h-0.084l-0.777,0.084l-0.125,0.044l-0.474,0.042    h-0.085l-0.389,0.086l-1.467,0.173l-0.381,0.043h-0.131l-0.475,0.087h-0.125l-0.389,0.042l-0.348,0.044h-0.125l-0.475,0.042    l-0.17,0.042l-0.349,0.044h-0.382l-0.131,0.044l-0.514,0.042h-0.178l-0.342,0.044l-0.342,0.042h-0.132l-0.513,0.042h-0.131    l-0.389,0.044l-0.382,0.044h-0.086l-0.519,0.042h-0.172l-0.342,0.042h-0.434h-0.086l-0.514,0.044h-0.17l-0.349,0.044l-0.474,0.042    h-0.04h-0.52l-0.211,0.044h-0.302l-0.514,0.042h-0.045h-0.514h-0.217h-0.343l-0.434,0.043h-0.086h-0.513l-0.217,0.043h-0.303    h-0.514l0,0l-0.52,0.045h-0.256h-0.296h-0.521h-0.039h-0.52l-0.256,0.042h-0.258h-0.519h-0.04h-0.559h-0.217h-0.303h-0.514h-0.559    h-0.257h-0.303H300.5l0,0h-0.52h-0.303l-0.256-0.042h-0.514h-0.046h-0.513h-0.264h-0.256l-0.514-0.045h-0.046h-0.513h-0.303    l-0.218-0.043h-0.56l0,0l-0.512-0.043h-0.258h-0.256h-0.52h-0.086l-0.427-0.042h-0.349l-0.171-0.044h-0.599l-0.434-0.042    l-0.342-0.044h-0.172l-0.514-0.044h-0.092h-0.428l-0.342-0.042h-0.17l-0.521-0.042h-0.085l-0.428-0.044l-0.342-0.044h-0.178    l-0.514-0.042h-0.085l-0.435-0.042l-0.342-0.044h-0.125l-0.475-0.042l-0.17-0.044h-0.348l-0.389-0.044l-0.125-0.042l-0.52-0.042    h-0.086l-0.388-0.044l-0.382-0.042h-0.086l-0.52-0.087h-0.17l-1.81-0.216l-0.343-0.086h-0.124l-0.474-0.042    c-3.525-0.516-6.926-1.118-10.149-1.807c-3.867-0.816-7.524-1.849-10.833-2.967l-0.17-0.042l-0.947-0.388h-0.086l-0.343-0.128    l-0.171-0.042l-0.131-0.045l-0.342-0.128l-0.047-0.044l-0.598-0.214l0,0l-0.349-0.13l-0.21-0.086l-0.132-0.042l-0.303-0.13    l-0.125-0.042l-0.217-0.087c-2.454-1.031-4.684-2.106-6.71-3.267c-1.328,1.074-2.446,2.148-3.222,3.31    c-0.901,1.248-1.375,2.536-1.375,3.827c0,4.771,6.019,9.414,15.734,13.025c10.747,4.041,25.711,6.536,42.306,6.536    c16.596,0,31.553-2.495,42.307-6.536c9.715-3.611,15.732-8.254,15.732-13.025c0-1.291-0.52-2.579-1.374-3.87    c-0.776-1.118-1.894-2.192-3.269-3.267C354.922,445.177,354.277,445.52,353.633,445.865z M364.598,353.217h0.045l0.086,0.045    h0.086l0.086,0.042l0,0l0.17,0.042l0,0h0.086l0.086,0.044h0.046l0.124,0.042l0,0l0.086,0.044h0.086h0.086l0.085,0.044l0,0    l0.177,0.042l0,0h0.086l0.086,0.042h0.039l0.132,0.044l0,0l0.171,0.044h0.086l0.086,0.042h0.045l0.125,0.042l0,0h0.131v0.044    l0.219,0.042h0.039l0.473,0.086h0.047l0.256,0.086h0.04l0.349,0.086l0,0c1.459,0.303,3.006,0.603,4.598,0.818    c5.289,0.858,11.221,1.333,17.456,1.333c8.209,0,15.864-0.816,22.442-2.279c6.664-1.418,12.076-3.482,15.773-5.89    c0.177-0.13,0.348-0.214,0.559-0.302c2.453-1.719,3.828-3.481,3.828-5.288c0-3.139-4.295-6.319-11.221-8.898    c-7.953-3.009-19.042-4.857-31.382-4.857c-12.339,0-23.436,1.849-31.427,4.857c-6.367,2.365-10.537,5.288-11.096,8.211    c3.787,1.506,7.137,3.183,9.932,5.073C360.684,348.79,363.006,350.938,364.598,353.217z M314.036,250.596    c0.303-0.516,0.474-1.075,0.435-1.634c-0.047-0.559-0.258-1.032-0.691-1.462c-0.388-0.386-0.814-0.602-1.289-0.644    c-0.473-0.043-1.072,0.129-1.678,0.472L314.036,250.596z M304.02,242.944c-0.211,0.473-0.257,0.902-0.211,1.375    c0.124,0.43,0.302,0.816,0.598,1.161c0.304,0.257,0.645,0.472,1.08,0.515c0.427,0.086,0.854,0.043,1.374-0.172L304.02,242.944z     M312.707,251.67l-3.439-3.482c-1.421,0.774-2.664,1.074-3.781,0.945c-1.119-0.129-2.15-0.601-3.053-1.504    c-0.908-0.902-1.381-1.935-1.421-3.138c-0.046-1.161,0.343-2.279,1.204-3.31l-0.815-0.817l1.204-1.205l0.814,0.774    c0.986-0.774,1.98-1.162,3.006-1.204c1.033,0,2.025,0.3,3.013,1.031l-1.848,2.365c-0.816-0.559-1.593-0.644-2.368-0.344    l3.269,3.268c1.724-0.989,3.052-1.462,4.131-1.376c1.033,0.086,2.02,0.603,2.92,1.506c0.994,0.988,1.546,2.148,1.593,3.439    c0.045,1.29-0.342,2.537-1.25,3.783l1.552,1.547l-1.204,1.204l-1.551-1.504c-1.026,0.816-2.191,1.247-3.35,1.247    c-1.203,0-2.406-0.43-3.695-1.376l1.934-2.407c0.514,0.343,1.072,0.558,1.631,0.644    C311.761,251.843,312.273,251.799,312.707,251.67z M299.204,236.967c-2.789,2.837-4.21,6.535-4.21,10.19    c0,3.697,1.421,7.394,4.21,10.188c2.842,2.795,6.538,4.214,10.234,4.214c3.61,0,7.308-1.419,10.149-4.214    c2.789-2.794,4.209-6.492,4.209-10.188c0-3.655-1.42-7.353-4.209-10.19c-2.842-2.794-6.539-4.212-10.149-4.212    C305.742,232.755,302.046,234.173,299.204,236.967z M294.219,231.938c4.17-4.17,9.714-6.277,15.22-6.277    c5.46,0.043,10.965,2.15,15.136,6.277c4.209,4.213,6.32,9.716,6.32,15.22c0,5.502-2.111,11.005-6.32,15.177    c-4.131,4.213-9.676,6.319-15.136,6.319c-5.506,0-11.05-2.106-15.22-6.277c-4.209-4.214-6.275-9.716-6.275-15.219    C287.943,241.653,290.01,236.151,294.219,231.938z M303.42,287.525l54.173-54.169c-1.554-2.407-2.237-5.159-2.237-7.91    c0-2.751,0.684-5.503,2.237-7.911l-18.575-18.529c-2.407,1.504-5.157,2.236-7.912,2.236c-2.75,0-5.5-0.731-7.907-2.236    l-42.911,42.905C290.521,257.088,299.204,271.662,303.42,287.525z M276.42,236.194l44.107-44.152c1.336-1.333,3.487-1.333,4.816,0    l0.178,0.172c1.545,1.462,3.564,2.236,5.584,2.236c2.111,0,4.215-0.817,5.807-2.408c1.329-1.333,3.479-1.333,4.816,0    l22.783,22.786c1.336,1.333,1.336,3.482,0,4.815c-1.592,1.59-2.368,3.696-2.368,5.804c0,2.106,0.776,4.212,2.321,5.76    c1.383,1.333,1.383,3.483,0.047,4.815l-59.461,59.458c0.264,1.591,0.52,3.226,0.646,4.857l76.699-76.654l-49.482-49.526    l-58.729,58.77L276.42,236.194z M291.64,199.479c0.171-0.559,0.171-1.118,0-1.634c-0.171-0.559-0.513-0.988-1.032-1.248    c-0.474-0.257-0.947-0.343-1.421-0.3c-0.467,0.086-0.987,0.387-1.499,0.902L291.64,199.479z M279.945,194.707    c-0.039,0.473,0,0.945,0.172,1.375c0.217,0.386,0.52,0.731,0.907,0.945c0.343,0.216,0.729,0.301,1.157,0.258    c0.428-0.042,0.861-0.214,1.289-0.516L279.945,194.707z M237.126,133.788h-84.481h-0.125h-11.438c-2.104,0-3.999,0.86-5.374,2.236    s-2.237,3.267-2.237,5.331c0,2.106,0.862,3.998,2.237,5.374c1.375,1.333,3.269,2.193,5.374,2.193h86.158h0.086h9.8    c2.104,0,3.999-0.859,5.374-2.193c1.375-1.375,2.19-3.267,2.19-5.374c0-2.063-0.815-3.955-2.19-5.331    S239.231,133.788,237.126,133.788z M224.747,155.756H150.54c-9.116,30.998-24.935,54.212-39.464,75.536    c-16.938,24.936-32.072,47.206-32.072,76.097c0,19.388,4.986,37.573,13.754,53.394c8.945,16.079,21.843,29.707,37.359,39.597    h108.384c0.349-0.646,0.73-1.291,1.164-1.893c0.855-1.204,1.888-2.363,3.138-3.481c-3.743-3.396-5.848-7.266-5.848-11.394    c0-2.751,0.947-5.373,2.664-7.824c0.776-1.16,1.808-2.364,3.013-3.439c-3.611-3.396-5.677-7.18-5.677-11.263    c0-7.997,7.827-14.919,20.377-19.606c10.149-3.825,23.561-6.361,38.523-6.92c0.988-3.955,1.803-7.996,2.323-12.124    c0.684-4.557,0.986-9.286,1.025-14.102l0,0v-0.042v-0.044v-0.086v-0.043l0,0v-0.044v-0.042v-0.644    c0-4.172-0.342-8.257-1.118-12.254v-0.086v-0.086l-0.039-0.172c-3.27-17.756-13.115-34.007-24.718-51.118    c-0.179-0.172-0.304-0.386-0.435-0.558c-1.889-2.795-3.783-5.546-5.762-8.384c-0.172-0.171-0.256-0.343-0.342-0.558l-0.428-0.603    c-8.341-12.038-17.115-24.677-24.936-38.691v-0.087l-0.045-0.085C234.805,182.885,229.003,170.073,224.747,155.756z     M156.52,126.952h62.21c-1.638-14.359-1.638-28.546-0.218-42.562c1.421-14.1,4.209-28.116,7.952-42.174l-0.473-0.129    c-8.17-2.365-13.931,0.773-19.647,3.826c-8.124,4.428-16.122,8.77-29.665,2.021c-3.525-1.763-6.189-3.311-8.254-4.514    c-5.46-3.138-6.703-3.826-16.509-1.806c3.012,13.542,4.992,28.676,5.762,43.808C158.453,99.652,158.111,113.969,156.52,126.952z     M105.616,325.961c-0.559-1.807,0.474-3.697,2.276-4.257c1.763-0.515,3.657,0.474,4.216,2.28c0,0.128,12.898,44.451,55.284,56.833    c1.809,0.517,2.842,2.409,2.322,4.214c-0.513,1.807-2.408,2.837-4.17,2.322C119.501,373.896,105.655,326.089,105.616,325.961z     M191.683,326.649c1.763-0.431,3.229-1.248,4.301-2.537c1.118-1.29,1.677-2.839,1.677-4.558c0-1.59-0.473-2.923-1.42-4.041    c-0.902-1.16-2.447-1.979-4.559-2.623V326.649z M186.572,289.29c-1.381,0.514-2.415,1.332-3.229,2.448    c-0.815,1.119-1.204,2.323-1.204,3.697c0,1.248,0.349,2.365,1.079,3.439c0.77,1.076,1.887,1.893,3.354,2.538V289.29z     M186.572,326.047v-14.66c-4.559-1.29-7.873-3.268-9.978-5.89c-2.15-2.665-3.223-5.89-3.223-9.673c0-3.827,1.242-7.053,3.65-9.631    c2.368-2.579,5.59-4.084,9.55-4.514v-3.439h5.111v3.439c3.743,0.472,6.709,1.719,8.899,3.825c2.236,2.108,3.611,4.901,4.217,8.385    l-8.86,1.16c-0.559-2.751-1.973-4.6-4.255-5.59v13.672c5.636,1.505,9.505,3.483,11.523,5.89c2.02,2.407,3.052,5.504,3.052,9.287    c0,4.213-1.289,7.78-3.867,10.661c-2.578,2.923-6.104,4.688-10.708,5.418v6.534h-5.111v-6.448c-4-0.517-7.268-2.021-9.807-4.516    c-2.493-2.492-4.125-6.018-4.814-10.575l9.116-1.074c0.342,1.849,1.072,3.439,2.104,4.815    C184.204,324.457,185.362,325.445,186.572,326.047z M224.53,274.155c-9.071-9.07-21.581-14.66-35.427-14.66    c-13.845,0-26.355,5.59-35.425,14.66c-9.071,9.072-14.662,21.583-14.662,35.427c0,13.842,5.591,26.352,14.662,35.425    c9.07,9.07,21.581,14.658,35.425,14.658c13.761,0,26.225-5.501,35.256-14.488l0.125-0.17c9.116-9.073,14.708-21.583,14.708-35.425    C239.192,295.738,233.6,283.228,224.53,274.155z M189.104,252.402c15.78,0,30.053,6.405,40.458,16.724    c10.314,10.361,16.721,24.677,16.721,40.456c0,15.776-6.407,30.093-16.721,40.454l-0.217,0.172    c-10.359,10.231-24.546,16.552-40.241,16.552c-15.778,0-30.091-6.406-40.45-16.724c-10.32-10.361-16.773-24.678-16.773-40.454    c0-15.779,6.453-30.095,16.773-40.456C159.012,258.807,173.325,252.402,189.104,252.402z" style="fill-rule:evenodd;clip-rule:evenodd;"/>
    </g>
  </g>
  <g id="Layer_1"/>
</svg>
